<?xml version="1.0" encoding="UTF-8"?>
<!DOCTYPE svg PUBLIC "-//W3C//DTD SVG 1.1//EN" "http://www.w3.org/Graphics/SVG/1.1/DTD/svg11.dtd">
<!-- Creator: CorelDRAW 2019 (64-Bit) -->
<svg xmlns="http://www.w3.org/2000/svg" xml:space="preserve" width="191.002mm" height="81.7395mm" version="1.1" style="shape-rendering:geometricPrecision; text-rendering:geometricPrecision; image-rendering:optimizeQuality; fill-rule:evenodd; clip-rule:evenodd"
viewBox="0 0 191.0024 81.7398"
 xmlns:xlink="http://www.w3.org/1999/xlink"
 xmlns:xodm="http://www.corel.com/coreldraw/odm/2003">
 <defs>
  <style type="text/css">
   <![CDATA[
    .fil0 {fill:#F1B500}
   ]]>
  </style>
 </defs>
 <g id="Layer_x0020_1">
  <metadata id="CorelCorpID_0Corel-Layer"/>
  <path class="fil0" d="M35.7874 44.3661l2.6116 7.6695c1.4131,4.1472 2.6745,7.4634 2.8387,7.4634 0.0029,0 0.0057,-0.0012 0.0073,-0.0032 0.1811,-0.1596 5.2925,-15.0039 5.2925,-15.0039l9.9068 0 -11.9518 34.8261 -6.886 0c0,0 -7.3496,-21.2271 -7.3194,-21.3076l-7.672 21.0406 -6.8168 0 -11.8014 -34.6849 9.8588 0.0064c0,0 5.4006,15.3076 5.4726,15.3076l0.0004 -0.0004 5.3886 -15.314 11.0701 0.0004zm-35.1562 -2.4122l0 0 1.0847 3.1883 11.8016 34.6848 0.5558 1.6338 10.2282 0 0.5777 -1.5846 5.327 -14.6088c0.4593,1.3355 0.9551,2.7751 1.4512,4.2131 1.2221,3.5424 2.4461,7.0842 3.672,10.6258l0.5614 1.6215 10.3221 0 0.5587 -1.6271 11.9519 -34.8262 1.0955 -3.1925 -15.0003 0 -0.5594 1.6255c-1.0273,2.9821 -2.0609,5.9617 -3.1016,8.9389 -0.1608,-0.4624 -0.3202,-0.9251 -0.4778,-1.3886l-2.6116 -7.6691 -0.5558 -1.6327 -14.5014 0 -0.5667 1.6103 -3.1483 8.9478c-1.0597,-2.9798 -2.1155,-5.9611 -3.1679,-8.9434l-0.5666 -1.6068 -1.704 -0.0011 -9.8589 -0.0064 -3.3675 -0.0025zm187.7333 2.2773l0 0 -0.022 9.1282c0,0 -9.8327,-0.0325 -14.831,-0.0325 -1.6626,0 -2.7915,0.0043 -2.8448,0.0135 -0.8606,0.1572 -1.4102,1.9892 -1.1654,2.7927 0.1198,0.407 1.0221,1.7353 1.9973,2.9554 0.9726,1.2203 2.5728,3.2176 3.5479,4.4364 2.505,3.1272 2.8488,3.7444 3.0805,5.5397 0.3775,2.9168 -1.0011,6.0727 -3.5622,8.1539 -2.5663,2.0875 -2.4529,2.1021 -21.5011,2.1021l-0.8373 0c-11.585,-0.0031 -17.7109,-0.0991 -18.6028,-0.2976 -1.5845,-0.3585 -4.11,-2.4185 -10.7812,-8.8195 -2.3998,-2.2999 -4.6119,-4.3138 -4.7254,-4.3146 -0.0031,0 -0.0043,0.0019 -0.0043,0.0055l-0.0787 13.4275 -10.8131 -0.0474 -0.0669 -34.6339 24.1156 0c7.269,0.2622 12.1867,7.5032 11.2089,12.1206 -0.2226,1.0482 -0.7891,2.567 -1.259,3.3736 -0.9675,1.657 -3.4283,3.7834 -5.4267,4.6964 -0.737,0.3333 -1.3399,0.7222 -1.3399,0.8606 0,0.5153 2.4284,2.9059 3.3383,3.286 0.7774,0.3251 3.0389,0.3971 13.0148,0.3971l3.1951 0.0008c10.0292,0 9.524,-0.0724 10.2987,-1.7294 0.5429,-1.1531 0.1303,-1.8431 -3.686,-6.1418 -4.8355,-4.8105 -4.3291,-7.1148 -4.3617,-8.8167 -0.0689,-2.0394 1.5365,-8.4546 9.8836,-8.4546l22.2288 -0.0021zm-64.7816 16.0005l0 0c4.6294,0 5.5697,-0.0716 6.5546,-0.4998 3.3258,-1.446 3.503,-5.7169 0.313,-7.6121 -0.6984,-0.4159 -1.5962,-0.4844 -6.6145,-0.5118l-5.8069 -0.0306c0.0481,0.0449 -0.0186,8.3046 -0.0186,8.3046 0,0 1.4549,0.3497 5.5724,0.3497zm67.1982 -18.4102l0 0 -24.6454 0c-4.8304,0 -7.6871,1.906 -9.2311,3.5052 -2.5156,2.6003 -3.1066,5.875 -3.0611,7.4189 0.0027,0.1285 0.0014,0.2602 0,0.3978 -0.0221,2.5088 0.3463,5.3493 5.0179,10.0146 0.9218,1.0394 2.4659,2.7826 3.0519,3.6488 -1.2773,0.1567 -4.5128,0.1567 -7.9122,0.1567l-1.4427 0 -1.7511 -0.0003c-5.9956,0 -11.0525,-0.0174 -12.0877,-0.2219 -0.1446,-0.094 -0.3477,-0.2572 -0.5716,-0.4513 2.0716,-1.275 4.1665,-3.2526 5.152,-4.943 0.599,-1.0283 1.259,-2.7843 1.535,-4.0867 0.6159,-2.8991 -0.3983,-6.3965 -2.7107,-9.3583 -2.6978,-3.4552 -6.622,-5.5224 -10.7661,-5.6716l-0.0443 -0.0019 -26.5742 0 0.0052 2.415 0.067 34.6335 0.0045 2.3947 2.3944 0.0104 10.8132 0.0476 2.4055 0.01 0.0146 -2.4058 0.0465 -8.044c0.2206,0.2098 0.4486,0.4278 0.6836,0.6522 7.2984,7.0002 9.7463,8.9397 11.9168,9.4308 0.5963,0.1324 1.5819,0.3529 19.1341,0.3576l0.8373 0c9.5018,0 14.2711,0 17.1082,-0.2737 3.2497,-0.3143 4.2952,-1.0513 5.8628,-2.3274l0.0521 -0.0426c3.2185,-2.6171 4.9164,-6.5757 4.432,-10.3316 -0.3163,-2.4428 -0.9621,-3.458 -3.5909,-6.7376l-0.7812 -0.976c-0.9218,-1.1517 -1.8436,-2.3038 -2.7641,-3.4565 -0.5976,-0.7481 -1.069,-1.4122 -1.3515,-1.8475 0.3724,-0.0011 0.8555,-0.0015 1.4817,-0.0015 4.9385,0 14.7254,0.0321 14.8232,0.0325l2.4125 0.0076 0.0066 -2.4118 0.022 -9.1291 0.0053 -2.4137zm-70.3453 15.9124l0 0c0.7724,0.0489 1.8066,0.0879 3.1475,0.0879 4.226,0 5.066,-0.0713 5.5931,-0.3004 0.946,-0.4103 1.1271,-1.1102 1.1519,-1.4911 0.0429,-0.7047 -0.3616,-1.3854 -1.0861,-1.8256 -0.5681,-0.1612 -3.4823,-0.1774 -5.4188,-0.1874l-3.3702 -0.0178c-0.0003,0.553 -0.0035,1.1566 -0.0063,1.759l-0.0111 1.9754zm-35.1915 -13.6448l0 0 12.1358 34.9169 -9.8889 0.045 -1.6414 -5.2442 -17.6819 -0.142 -1.5603 5.2506 -9.789 -0.1027 11.9822 -34.7088 16.4435 -0.0148zm-7.9526 5.1192l0 0c-0.0247,0.1004 -1.5492,4.2833 -3.0787,8.4656 -1.5423,4.2167 -3.0899,8.4338 -3.1109,8.466 0.041,-0.012 5.5166,-0.0238 9.0267,-0.0238 1.6423,0 2.8539,0.0031 2.8767,0.0083l0 0.0017 0 -0.0017c-0.0617,-0.1584 -5.6961,-16.7124 -5.7138,-16.9162l0.0003 -0.0018 -0.0003 0.0018zm9.6654 -7.531l0 0 -1.7145 0.0021 -16.4435 0.0155 -1.7157 0.0016 -0.56 1.6223 -11.9826 34.7088 -1.0912 3.1606 3.3443 0.0346 9.7892 0.1027 1.8173 0.0191 0.5177 -1.7417 1.0441 -3.5125 14.1131 0.1127 1.117 3.5693 0.5316 1.6983 1.7791 -0.0076 9.889 -0.0449 3.3716 -0.0159 -1.1074 -3.185 -12.1362 -34.9169 -0.563 -1.6231zm-12.3868 22.0323l0 0c1.2407,-0.0023 2.8824,-0.0023 5.063,-0.0023 -0.7334,-2.1564 -1.5884,-4.6761 -1.7829,-5.2503l-0.6535 -1.9263 -0.721 1.9713c-0.8344,2.2828 -1.4491,3.9637 -1.9056,5.2076zm14.7644 -61.2962l0 0 0 8.6146 -17.2536 0 0 26.3475 -10.2866 0 0 -26.3682 -20.1393 0.0569c-2.4277,0 -2.7532,1.934 -2.7532,2.6748 0,0.9101 0.5933,1.8193 3.8528,5.946 2.1145,2.6805 4.057,5.3556 4.3134,5.9399 1.3975,3.2172 -0.41,8.2293 -3.7024,10.2655 -2.346,1.4496 -1.9454,1.4854 -19.3703,1.4854l-21.5857 0 0 -9.6782 29.4888 0 0.8706 -0.6056c0.5872,-0.409 0.9281,-0.9725 1.0571,-1.7437 0.1807,-1.1086 0.0877,-1.2534 -3.554,-5.3556 -4.3044,-4.8499 -4.7593,-5.7349 -4.5363,-8.831 0.253,-3.5336 3.4038,-8.6664 8.9097,-8.6664l54.6889 -0.0819zm2.4098 -2.4134l0 0 -2.4137 0.0039 -54.6888 0.0813c-3.1501,0 -6.076,1.3616 -8.2358,3.8322 -1.7513,2.0037 -2.9009,4.6479 -3.0744,7.0719 -0.2928,4.0699 0.6439,5.5408 5.1376,10.6034 1.3043,1.4692 2.5442,2.8666 2.9582,3.4595 -0.0045,0.0163 -0.0096,0.0323 -0.0161,0.0482 -0.0046,0.0037 -0.0116,0.0084 -0.0211,0.0155l-0.2479 0.1719 -31.1425 0 0 14.4979 23.9956 0c8.5912,0 12.8318,-0.008 15.3298,-0.1914 2.8586,-0.2094 3.7707,-0.6996 5.1372,-1.5483l0.1703 -0.1064c4.2959,-2.6565 6.51,-8.9841 4.6454,-13.2754 -0.5755,-1.3126 -4.218,-5.9477 -4.6316,-6.4716 -1.1435,-1.4485 -3.0308,-3.8376 -3.3297,-4.5292 0.0076,-0.0577 0.0215,-0.1181 0.0367,-0.1599 0.0497,-0.0128 0.1447,-0.0299 0.3015,-0.0299l17.7295 -0.0502 0 26.3616 15.1058 0 0 -26.3477 17.254 0 0 -13.4373zm25.6213 2.6932l0 0 -16.6273 0 -11.9696 34.6823 10.051 0 1.5725 -5.0519 17.6029 0.0783 1.6025 5.2443 9.8709 0.0541 -12.1029 -35.0071zm-14.1002 22.1757l0 0c-0.1349,0 6.0809,-17.2582 6.1234,-17.2567 0.0395,0.012 5.9068,17.242 5.8655,17.242l0 -0.0004 -11.9889 0.0151zm15.8167 -24.5856l0 0 -20.0604 0 -0.5599 1.624 -11.9704 34.6824 -1.1031 3.1957 15.2069 0 0.5269 -1.6935 1.0425 -3.3501 14.0465 0.0624 1.0841 3.5463 0.5188 1.6954 1.7732 0.01 9.8712 0.0546 3.4031 0.0188 -1.1118 -3.2161 -12.1033 -35.0076 -0.5644 -1.6223zm-12.4691 22.1724l0 0c0.8969,-2.5449 1.8019,-5.0864 2.7149,-7.6246 0.8659,2.5378 1.7283,5.0773 2.5871,7.6177l-5.302 0.0069zm44.7449 -19.7625l0 0c7.8079,0 13.2256,0.1113 14.2684,0.292 2.41,0.4194 4.587,1.7051 6.2196,3.6815 1.707,2.0656 2.0989,3.0545 2.3227,5.8858 0.3191,3.997 -1.5819,7.4462 -5.3328,9.6833 -1.0924,0.6537 -2.216,1.2893 -2.4959,1.4159 -0.4311,0.1957 -0.3737,0.3828 0.3971,1.2863 0.496,0.5819 1.3592,1.4103 1.9125,1.8404l1.0117 0.786 18.7006 0.2681 0.1822 9.5429 -11.464 0c-8.8678,0 -11.7048,-0.0815 -12.5368,-0.3612 -1.2447,-0.4219 -4.2381,-2.9578 -10.3222,-8.7472l-4.3448 -4.1332 0.0457 13.2416 -11.1582 0 0 -34.6823 12.5943 0zm-1.6445 15.594l0 0 5.9253 0c5.7652,0 5.9449,-0.0187 6.7678,-0.6355 1.47,-1.1022 1.9908,-2.2382 1.8345,-3.9824 -0.1588,-1.7985 -0.8529,-2.7344 -2.591,-3.4877 -0.9778,-0.4277 -1.9216,-0.497 -6.5424,-0.497l-5.3942 0 0 8.6026zm1.6445 -18.004l0 0 -15.0015 0 0 39.5017 15.9858 0 -0.0078 -2.4178 -0.0273 -7.5955 0.2539 0.2407c7.5254,7.1602 9.7453,8.7874 11.2101,9.2836 1.1249,0.3795 3.0062,0.489 13.3102,0.489l13.9209 0 -0.0468 -2.4555 -0.1836 -9.543 -0.0443 -2.3291 -2.3293 -0.0333 -17.8933 -0.2567 -0.3737 -0.2913c-0.1198,-0.0935 -0.2643,-0.2164 -0.4192,-0.3558l0.3633 -0.2157c4.5191,-2.6971 6.8874,-7.0507 6.4968,-11.9443 -0.2591,-3.3007 -0.8488,-4.7878 -2.8682,-7.229 -1.9829,-2.4003 -4.7055,-4.0055 -7.6648,-4.5196 -1.6458,-0.2853 -9.9043,-0.3283 -14.6812,-0.3283zm0.7654 11.8108l0 0 0 3.7833 3.5154 0c2.6093,0 4.6937,0 5.2549,-0.1042l0.0676 -0.0501c0.8503,-0.6376 0.9571,-0.9826 0.8803,-1.8409 -0.0768,-0.8627 -0.1758,-1.0688 -1.1549,-1.4926 -0.517,-0.2252 -1.3541,-0.2955 -5.579,-0.2955l-2.9843 0z"/>
 </g>
</svg>
